# xmcd
#
# Track frame offsets:
#	150
#	13557
#	30398
#	47397
#	63909
#	80297
#	94881
#	109854
#	126643
#	144704
#	159991
#	176137
#
# Disc length: 2590 seconds
#
# Revision: 0
# Processed by: cddbd v1.5.1PL2 Copyright (c) Steve Scherf et al.
# Submitted via: EasyCDDAExtractor 9.0.0.1
#
DISCID=980a1c0c
DTITLE=Barbara Dex - Blue Eyed Girl
DYEAR=2006
DGENRE=Country
TTITLE0=Crazy
TTITLE1=To make you love me
TTITLE2=This is my life
TTITLE3=You can't run
TTITLE4=No one o hurt me
TTITLE5=Only a fool
TTITLE6=Come on up and see me sometime
TTITLE7=A fool's bet
TTITLE8=If you ever
TTITLE9=Why don't we
TTITLE10=Follow the way
TTITLE11=Anywhere but here
EXTD=
EXTT0=
EXTT1=
EXTT2=
EXTT3=
EXTT4=
EXTT5=
EXTT6=
EXTT7=
EXTT8=
EXTT9=
EXTT10=
EXTT11=
PLAYORDER=
